<mxfile host="app.diagrams.net" modified="2023-02-22T17:24:15.895Z" agent="5.0 (Windows NT 10.0; Win64; x64) AppleWebKit/537.36 (KHTML, like Gecko) Chrome/110.0.0.0 Safari/537.36" etag="qYTzezcZh8ANo9DkyyWU" version="20.8.21" type="github">
  <diagram name="Page-1" id="c9db0220-8083-56f3-ca83-edcdcd058819">
    <mxGraphModel dx="1400" dy="775" grid="1" gridSize="10" guides="1" tooltips="1" connect="1" arrows="1" fold="1" page="1" pageScale="1.5" pageWidth="826" pageHeight="1169" background="none" math="0" shadow="0">
      <root>
        <mxCell id="0" style=";html=1;" />
        <mxCell id="1" style=";html=1;" parent="0" />
        <mxCell id="tSHCLuBhUTtKWHFadsuw-1" value="Home" style="rounded=0;whiteSpace=wrap;html=1;fontStyle=1;fontSize=18;" vertex="1" parent="1">
          <mxGeometry x="240" y="110" width="240" height="70" as="geometry" />
        </mxCell>
        <mxCell id="tSHCLuBhUTtKWHFadsuw-2" value="All notifications" style="rounded=0;whiteSpace=wrap;html=1;fontStyle=1;fontSize=18;" vertex="1" parent="1">
          <mxGeometry x="760" y="110" width="240" height="70" as="geometry" />
        </mxCell>
        <mxCell id="tSHCLuBhUTtKWHFadsuw-3" value="Notific." style="rounded=0;whiteSpace=wrap;html=1;fontSize=16;fontStyle=1" vertex="1" parent="1">
          <mxGeometry x="80" y="240" width="90" height="40" as="geometry" />
        </mxCell>
        <mxCell id="tSHCLuBhUTtKWHFadsuw-4" value="Profile" style="rounded=0;whiteSpace=wrap;html=1;fontSize=16;fontStyle=1" vertex="1" parent="1">
          <mxGeometry x="80" y="320" width="90" height="40" as="geometry" />
        </mxCell>
        <mxCell id="tSHCLuBhUTtKWHFadsuw-5" value="Local" style="rounded=0;whiteSpace=wrap;html=1;fontSize=16;fontStyle=1" vertex="1" parent="1">
          <mxGeometry x="80" y="560" width="90" height="40" as="geometry" />
        </mxCell>
        <mxCell id="tSHCLuBhUTtKWHFadsuw-6" value="Timeline" style="rounded=0;whiteSpace=wrap;html=1;fontSize=16;fontStyle=1" vertex="1" parent="1">
          <mxGeometry x="80" y="400" width="90" height="40" as="geometry" />
        </mxCell>
        <mxCell id="tSHCLuBhUTtKWHFadsuw-7" value="DM" style="rounded=0;whiteSpace=wrap;html=1;fontSize=16;fontStyle=1" vertex="1" parent="1">
          <mxGeometry x="80" y="480" width="90" height="40" as="geometry" />
        </mxCell>
        <mxCell id="tSHCLuBhUTtKWHFadsuw-8" value="Search" style="rounded=0;whiteSpace=wrap;html=1;fontSize=16;fontStyle=1" vertex="1" parent="1">
          <mxGeometry x="80" y="640" width="90" height="40" as="geometry" />
        </mxCell>
        <mxCell id="tSHCLuBhUTtKWHFadsuw-9" value="Favs" style="rounded=0;whiteSpace=wrap;html=1;fontSize=16;fontStyle=1" vertex="1" parent="1">
          <mxGeometry x="80" y="720" width="90" height="40" as="geometry" />
        </mxCell>
        <mxCell id="tSHCLuBhUTtKWHFadsuw-10" value="New tool" style="rounded=0;whiteSpace=wrap;html=1;fontSize=16;fontStyle=1" vertex="1" parent="1">
          <mxGeometry x="80" y="960" width="90" height="40" as="geometry" />
        </mxCell>
        <mxCell id="tSHCLuBhUTtKWHFadsuw-11" value="Settings" style="rounded=0;whiteSpace=wrap;html=1;fontSize=16;fontStyle=1" vertex="1" parent="1">
          <mxGeometry x="80" y="876.75" width="90" height="40" as="geometry" />
        </mxCell>
        <mxCell id="tSHCLuBhUTtKWHFadsuw-12" value="Bookmarks" style="rounded=0;whiteSpace=wrap;html=1;fontSize=16;fontStyle=1" vertex="1" parent="1">
          <mxGeometry x="80" y="797" width="90" height="40" as="geometry" />
        </mxCell>
        <mxCell id="tSHCLuBhUTtKWHFadsuw-13" value="" style="shape=actor;whiteSpace=wrap;html=1;fontSize=16;fillColor=#dae8fc;strokeColor=#6c8ebf;" vertex="1" parent="1">
          <mxGeometry x="220" y="250" width="30" height="40" as="geometry" />
        </mxCell>
        <mxCell id="tSHCLuBhUTtKWHFadsuw-14" value="&lt;font color=&quot;#000000&quot;&gt;John Doe&lt;/font&gt;" style="text;html=1;strokeColor=none;fillColor=none;align=left;verticalAlign=middle;whiteSpace=wrap;rounded=0;fontSize=16;fontColor=#66B2FF;" vertex="1" parent="1">
          <mxGeometry x="270" y="240" width="100" height="30" as="geometry" />
        </mxCell>
        <mxCell id="tSHCLuBhUTtKWHFadsuw-15" value="&lt;font color=&quot;#000000&quot;&gt;2 mins ago&lt;/font&gt;" style="text;html=1;strokeColor=none;fillColor=none;align=left;verticalAlign=middle;whiteSpace=wrap;rounded=0;fontSize=16;fontColor=#66B2FF;" vertex="1" parent="1">
          <mxGeometry x="270" y="270" width="100" height="30" as="geometry" />
        </mxCell>
        <mxCell id="tSHCLuBhUTtKWHFadsuw-17" value="Some text" style="rounded=1;whiteSpace=wrap;html=1;strokeWidth=2;fillWeight=4;hachureGap=8;hachureAngle=45;fillColor=#1ba1e2;sketch=1;fontSize=16;fontColor=#000000;" vertex="1" parent="1">
          <mxGeometry x="270" y="330" width="310" height="110" as="geometry" />
        </mxCell>
        <mxCell id="tSHCLuBhUTtKWHFadsuw-16" value="&lt;font color=&quot;#000000&quot;&gt;@johndoe@mastodon.social&lt;/font&gt;" style="text;html=1;strokeColor=none;fillColor=none;align=left;verticalAlign=middle;whiteSpace=wrap;rounded=0;fontSize=16;fontColor=#66B2FF;" vertex="1" parent="1">
          <mxGeometry x="370" y="240" width="100" height="30" as="geometry" />
        </mxCell>
      </root>
    </mxGraphModel>
  </diagram>
</mxfile>
